<svg width="375" height="661" viewBox="0 0 375 661" fill="none" xmlns="http://www.w3.org/2000/svg">
<path fill-rule="evenodd" clip-rule="evenodd" d="M15.9997 85.3333C110.256 85.3333 186.666 161.743 186.666 256V341.333C186.666 529.846 33.8462 682.667 -154.667 682.667H-240C-334.257 682.667 -410.667 606.257 -410.667 512C-410.667 417.743 -334.257 341.333 -240 341.333H-154.667V256C-154.667 161.743 -78.2569 85.3333 15.9997 85.3333Z" stroke="#99F6E4" stroke-width="85.3333" stroke-linecap="round" stroke-linejoin="round"/>
<path fill-rule="evenodd" clip-rule="evenodd" d="M16.0003 938.667C-78.2563 938.667 -154.666 862.257 -154.666 768V682.667C-154.666 494.154 -1.8462 341.333 186.667 341.333H272C366.257 341.333 442.667 417.743 442.667 512C442.667 606.257 366.257 682.667 272 682.667H186.667V768C186.667 862.257 110.257 938.667 16.0003 938.667Z" stroke="#99F6E4" stroke-width="85.3333" stroke-linecap="round" stroke-linejoin="round"/>
</svg>
