<svg width="375" height="541" viewBox="0 0 375 541" fill="none" xmlns="http://www.w3.org/2000/svg">
<path fill-rule="evenodd" clip-rule="evenodd" d="M316 -397.667C410.256 -397.667 486.666 -321.257 486.666 -227V-141.667C486.666 46.8464 333.846 199.667 145.333 199.667H59.9997C-34.2569 199.667 -110.667 123.257 -110.667 28.9999C-110.667 -65.2567 -34.2569 -141.667 59.9997 -141.667H145.333V-227C145.333 -321.257 221.743 -397.667 316 -397.667Z" stroke="#2DD4BF" stroke-width="85.3333" stroke-linecap="round" stroke-linejoin="round"/>
<path fill-rule="evenodd" clip-rule="evenodd" d="M316 455.667C221.744 455.667 145.334 379.257 145.334 285V199.667C145.334 11.1536 298.154 -141.667 486.667 -141.667H572C666.257 -141.667 742.667 -65.2565 742.667 29.0001C742.667 123.257 666.257 199.667 572 199.667H486.667V285C486.667 379.257 410.257 455.667 316 455.667Z" stroke="#2DD4BF" stroke-width="85.3333" stroke-linecap="round" stroke-linejoin="round"/>
</svg>
