<svg width="199" height="168" viewBox="0 0 199 168" fill="none" xmlns="http://www.w3.org/2000/svg">
<path fill-rule="evenodd" clip-rule="evenodd" d="M99.5 8C108.337 8 115.5 15.1634 115.5 24V32C115.5 49.6731 101.173 64 83.5 64H75.5C66.6634 64 59.5 56.8366 59.5 48C59.5 39.1634 66.6634 32 75.5 32H83.5V24C83.5 15.1634 90.6634 8 99.5 8Z" stroke="#14B8A6" stroke-width="8" stroke-linecap="round" stroke-linejoin="round"/>
<path fill-rule="evenodd" clip-rule="evenodd" d="M99.5 88C90.6634 88 83.5 80.8366 83.5 72V64C83.5 46.3269 97.8269 32 115.5 32H123.5C132.337 32 139.5 39.1634 139.5 48C139.5 56.8366 132.337 64 123.5 64H115.5V72C115.5 80.8366 108.337 88 99.5 88Z" stroke="#14B8A6" stroke-width="8" stroke-linecap="round" stroke-linejoin="round"/>
<path d="M19.9378 157.697V146.768C19.9378 145.731 19.8412 144.734 19.648 143.778C19.4686 142.822 19.1443 141.966 18.6752 141.212C18.2198 140.444 17.5988 139.838 16.8123 139.394C16.0396 138.949 15.0598 138.727 13.8731 138.727C12.9486 138.727 12.1069 138.882 11.3479 139.192C10.6028 139.488 9.96114 139.946 9.42298 140.566C8.88482 141.185 8.46395 141.966 8.16038 142.909C7.8706 143.838 7.72571 144.936 7.72571 146.202L5.304 145.475C5.304 143.36 5.69037 141.549 6.46311 140.04C7.24965 138.519 8.34666 137.354 9.75415 136.545C11.1754 135.724 12.8451 135.313 14.7632 135.313C16.2121 135.313 17.4471 135.535 18.4682 135.98C19.4893 136.424 20.3379 137.017 21.0141 137.758C21.6902 138.485 22.2215 139.306 22.6079 140.222C22.9942 141.125 23.2633 142.047 23.4151 142.99C23.5807 143.919 23.6635 144.801 23.6635 145.636V157.697H19.9378ZM4 157.697V135.879H7.31174V141.717H7.72571V157.697H4Z" fill="#222A3D"/>
<path d="M26.9749 132.02V128.303H30.6592V132.02H26.9749ZM26.9749 157.697V135.879H30.6592V157.697H26.9749Z" fill="#222A3D"/>
<path d="M43.4311 168C42.2582 168 41.1129 167.825 39.9952 167.475C38.8774 167.125 37.8494 166.593 36.9111 165.879C35.9866 165.178 35.2138 164.29 34.5929 163.212L37.9667 161.475C38.5187 162.539 39.2983 163.313 40.3056 163.798C41.3268 164.283 42.3755 164.525 43.4518 164.525C44.8731 164.525 46.0529 164.269 46.9912 163.758C47.9295 163.259 48.6195 162.512 49.0611 161.515C49.5164 160.519 49.7372 159.279 49.7234 157.798V151.838H50.1581V135.879H53.4284V157.838C53.4284 158.431 53.4077 159.003 53.3663 159.556C53.3387 160.108 53.2697 160.653 53.1593 161.192C52.8696 162.741 52.2969 164.013 51.4414 165.01C50.5858 166.02 49.4819 166.768 48.1296 167.253C46.7773 167.751 45.2112 168 43.4311 168ZM43.162 158.303C41.0784 158.303 39.2914 157.798 37.8011 156.788C36.3108 155.764 35.1586 154.384 34.3445 152.646C33.5442 150.909 33.144 148.949 33.144 146.768C33.144 144.586 33.5442 142.626 34.3445 140.889C35.1586 139.152 36.3108 137.785 37.8011 136.788C39.2914 135.778 41.0715 135.273 43.1413 135.273C45.2526 135.273 47.0257 135.771 48.4608 136.768C49.8959 137.764 50.9791 139.131 51.7105 140.869C52.4556 142.606 52.8282 144.572 52.8282 146.768C52.8282 148.936 52.4556 150.896 51.7105 152.646C50.9791 154.384 49.8959 155.764 48.4608 156.788C47.0257 157.798 45.2595 158.303 43.162 158.303ZM43.6174 155.01C45.1215 155.01 46.3565 154.66 47.3224 153.96C48.2883 153.246 48.999 152.269 49.4543 151.03C49.9235 149.778 50.1581 148.357 50.1581 146.768C50.1581 145.152 49.9235 143.731 49.4543 142.505C48.999 141.266 48.2952 140.303 47.3431 139.616C46.391 138.916 45.1836 138.566 43.7209 138.566C42.203 138.566 40.9473 138.929 39.9538 139.657C38.974 140.384 38.2427 141.367 37.7597 142.606C37.2906 143.845 37.056 145.232 37.056 146.768C37.056 148.316 37.2975 149.717 37.7804 150.97C38.2634 152.209 38.9878 153.192 39.9538 153.919C40.9335 154.646 42.1547 155.01 43.6174 155.01Z" fill="#222A3D"/>
<path d="M72.6411 157.697V146.768C72.6411 145.731 72.5445 144.734 72.3513 143.778C72.1719 142.822 71.8476 141.966 71.3785 141.212C70.9231 140.444 70.3021 139.838 69.5156 139.394C68.7429 138.949 67.7631 138.727 66.5764 138.727C65.6519 138.727 64.8102 138.882 64.0512 139.192C63.3061 139.488 62.6644 139.946 62.1263 140.566C61.5881 141.185 61.1673 141.966 60.8637 142.909C60.5739 143.838 60.429 144.936 60.429 146.202L58.0073 145.475C58.0073 143.36 58.3937 141.549 59.1664 140.04C59.9529 138.519 61.05 137.354 62.4575 136.545C63.8787 135.724 65.5484 135.313 67.4665 135.313C68.9154 135.313 70.1504 135.535 71.1715 135.98C72.1926 136.424 73.0412 137.017 73.7174 137.758C74.3935 138.485 74.9248 139.306 75.3112 140.222C75.6975 141.125 75.9666 142.047 76.1184 142.99C76.284 143.919 76.3668 144.801 76.3668 145.636V157.697H72.6411ZM56.7033 157.697V128.606H60.015V144.667H60.429V157.697H56.7033Z" fill="#222A3D"/>
<path d="M91.7454 157.697C90.4207 157.953 89.1098 158.054 87.8127 158C86.5294 157.96 85.3841 157.71 84.3767 157.253C83.3694 156.781 82.6036 156.054 82.0792 155.071C81.6376 154.209 81.3962 153.34 81.3548 152.465C81.3272 151.576 81.3134 150.572 81.3134 149.455V129.818H84.9977V149.293C84.9977 150.182 85.0046 150.943 85.0184 151.576C85.046 152.209 85.1909 152.754 85.453 153.212C85.9498 154.074 86.7364 154.579 87.8127 154.727C88.9028 154.875 90.2137 154.835 91.7454 154.606V157.697ZM76.7804 138.848V135.879H91.7454V138.848H76.7804Z" fill="#222A3D"/>
<path d="M94.214 132.02V128.303H97.8983V132.02H94.214ZM94.214 157.697V135.879H97.8983V157.697H94.214Z" fill="#222A3D"/>
<path d="M117.542 157.697V146.768C117.542 145.731 117.445 144.734 117.252 143.778C117.073 142.822 116.749 141.966 116.279 141.212C115.824 140.444 115.203 139.838 114.417 139.394C113.644 138.949 112.664 138.727 111.477 138.727C110.553 138.727 109.711 138.882 108.952 139.192C108.207 139.488 107.565 139.946 107.027 140.566C106.489 141.185 106.068 141.966 105.765 142.909C105.475 143.838 105.33 144.936 105.33 146.202L102.908 145.475C102.908 143.36 103.295 141.549 104.067 140.04C104.854 138.519 105.951 137.354 107.358 136.545C108.78 135.724 110.449 135.313 112.367 135.313C113.816 135.313 115.051 135.535 116.072 135.98C117.094 136.424 117.942 137.017 118.618 137.758C119.295 138.485 119.826 139.306 120.212 140.222C120.599 141.125 120.868 142.047 121.019 142.99C121.185 143.919 121.268 144.801 121.268 145.636V157.697H117.542ZM101.604 157.697V135.879H104.916V141.717H105.33V157.697H101.604Z" fill="#222A3D"/>
<path d="M133.21 168C132.037 168 130.892 167.825 129.774 167.475C128.657 167.125 127.629 166.593 126.69 165.879C125.766 165.178 124.993 164.29 124.372 163.212L127.746 161.475C128.298 162.539 129.078 163.313 130.085 163.798C131.106 164.283 132.155 164.525 133.231 164.525C134.652 164.525 135.832 164.269 136.771 163.758C137.709 163.259 138.399 162.512 138.84 161.515C139.296 160.519 139.517 159.279 139.503 157.798V151.838H139.937V135.879H143.208V157.838C143.208 158.431 143.187 159.003 143.146 159.556C143.118 160.108 143.049 160.653 142.939 161.192C142.649 162.741 142.076 164.013 141.221 165.01C140.365 166.02 139.261 166.768 137.909 167.253C136.557 167.751 134.99 168 133.21 168ZM132.941 158.303C130.858 158.303 129.071 157.798 127.58 156.788C126.09 155.764 124.938 154.384 124.124 152.646C123.323 150.909 122.923 148.949 122.923 146.768C122.923 144.586 123.323 142.626 124.124 140.889C124.938 139.152 126.09 137.785 127.58 136.788C129.071 135.778 130.851 135.273 132.921 135.273C135.032 135.273 136.805 135.771 138.24 136.768C139.675 137.764 140.758 139.131 141.49 140.869C142.235 142.606 142.607 144.572 142.607 146.768C142.607 148.936 142.235 150.896 141.49 152.646C140.758 154.384 139.675 155.764 138.24 156.788C136.805 157.798 135.039 158.303 132.941 158.303ZM133.397 155.01C134.901 155.01 136.136 154.66 137.102 153.96C138.068 153.246 138.778 152.269 139.234 151.03C139.703 149.778 139.937 148.357 139.937 146.768C139.937 145.152 139.703 143.731 139.234 142.505C138.778 141.266 138.075 140.303 137.122 139.616C136.17 138.916 134.963 138.566 133.5 138.566C131.982 138.566 130.727 138.929 129.733 139.657C128.753 140.384 128.022 141.367 127.539 142.606C127.07 143.845 126.835 145.232 126.835 146.768C126.835 148.316 127.077 149.717 127.56 150.97C128.043 152.209 128.767 153.192 129.733 153.919C130.713 154.646 131.934 155.01 133.397 155.01Z" fill="#222A3D"/>
<path d="M152.858 158.303C151.188 158.303 149.787 158.007 148.656 157.414C147.538 156.808 146.69 156.013 146.11 155.03C145.544 154.047 145.261 152.97 145.261 151.798C145.261 150.653 145.482 149.663 145.924 148.828C146.379 147.98 147.014 147.279 147.828 146.727C148.642 146.162 149.615 145.717 150.746 145.394C151.809 145.111 152.996 144.869 154.307 144.667C155.631 144.451 156.97 144.256 158.322 144.081C159.674 143.906 160.937 143.737 162.11 143.576L160.785 144.323C160.827 142.384 160.426 140.949 159.585 140.02C158.757 139.091 157.322 138.626 155.279 138.626C153.927 138.626 152.74 138.929 151.719 139.535C150.712 140.128 150.001 141.098 149.587 142.444L146.089 141.414C146.627 139.502 147.669 138 149.215 136.909C150.76 135.818 152.796 135.273 155.321 135.273C157.349 135.273 159.088 135.63 160.537 136.343C161.999 137.044 163.048 138.108 163.683 139.535C164 140.209 164.2 140.943 164.283 141.737C164.366 142.519 164.407 143.34 164.407 144.202V157.697H161.137V152.465L161.903 152.949C161.061 154.714 159.881 156.047 158.363 156.949C156.859 157.852 155.024 158.303 152.858 158.303ZM153.417 155.293C154.741 155.293 155.887 155.064 156.852 154.606C157.832 154.135 158.619 153.522 159.212 152.768C159.805 152 160.192 151.165 160.371 150.263C160.578 149.589 160.689 148.842 160.702 148.02C160.73 147.185 160.744 146.545 160.744 146.101L162.027 146.646C160.827 146.808 159.647 146.963 158.488 147.111C157.329 147.259 156.232 147.421 155.197 147.596C154.162 147.758 153.23 147.953 152.402 148.182C151.795 148.37 151.223 148.613 150.684 148.909C150.16 149.205 149.732 149.589 149.401 150.061C149.084 150.519 148.925 151.091 148.925 151.778C148.925 152.37 149.077 152.936 149.38 153.475C149.698 154.013 150.181 154.451 150.829 154.788C151.492 155.125 152.354 155.293 153.417 155.293Z" fill="#222A3D"/>
<path d="M167.719 157.697V128H171.403V157.697H167.719Z" fill="#222A3D"/>
<path d="M184.817 158.303C182.623 158.303 180.705 157.832 179.063 156.889C177.435 155.933 176.165 154.606 175.254 152.909C174.344 151.199 173.888 149.205 173.888 146.929C173.888 144.545 174.337 142.485 175.234 140.747C176.131 138.997 177.379 137.65 178.98 136.707C180.595 135.751 182.485 135.273 184.651 135.273C186.901 135.273 188.812 135.778 190.385 136.788C191.972 137.798 193.158 139.239 193.945 141.111C194.745 142.983 195.09 145.212 194.98 147.798H191.254V146.505C191.213 143.825 190.654 141.825 189.578 140.505C188.501 139.172 186.901 138.505 184.776 138.505C182.499 138.505 180.767 139.219 179.58 140.646C178.394 142.074 177.8 144.121 177.8 146.788C177.8 149.36 178.394 151.354 179.58 152.768C180.767 154.182 182.457 154.889 184.651 154.889C186.128 154.889 187.411 154.559 188.501 153.899C189.591 153.239 190.447 152.29 191.068 151.051L194.607 152.242C193.738 154.168 192.427 155.663 190.675 156.727C188.936 157.778 186.983 158.303 184.817 158.303ZM176.558 147.798V144.909H193.076V147.798H176.558Z" fill="#222A3D"/>
</svg>
