<svg width="97" height="96" viewBox="0 0 97 96" fill="none" xmlns="http://www.w3.org/2000/svg">
<path fill-rule="evenodd" clip-rule="evenodd" d="M48.5 8C57.3366 8 64.5 15.1634 64.5 24V32C64.5 49.6731 50.1731 64 32.5 64H24.5C15.6634 64 8.5 56.8366 8.5 48C8.5 39.1634 15.6634 32 24.5 32H32.5V24C32.5 15.1634 39.6634 8 48.5 8Z" stroke="#14B8A6" stroke-width="8" stroke-linecap="round" stroke-linejoin="round"/>
<path fill-rule="evenodd" clip-rule="evenodd" d="M48.5 88C39.6634 88 32.5 80.8366 32.5 72V64C32.5 46.3269 46.8269 32 64.5 32H72.5C81.3366 32 88.5 39.1634 88.5 48C88.5 56.8366 81.3366 64 72.5 64H64.5V72C64.5 80.8366 57.3366 88 48.5 88Z" stroke="#14B8A6" stroke-width="8" stroke-linecap="round" stroke-linejoin="round"/>
</svg>
