<svg width="191" height="40" viewBox="0 0 191 40" fill="none" xmlns="http://www.w3.org/2000/svg">
<path d="M15.9378 29.697V18.7677C15.9378 17.7306 15.8412 16.734 15.648 15.7778C15.4686 14.8215 15.1443 13.9663 14.6752 13.2121C14.2198 12.4444 13.5988 11.8384 12.8123 11.3939C12.0396 10.9495 11.0598 10.7273 9.87314 10.7273C8.94861 10.7273 8.10687 10.8822 7.34793 11.1919C6.60279 11.4882 5.96114 11.9461 5.42298 12.5657C4.88482 13.1852 4.46395 13.9663 4.16038 14.9091C3.8706 15.8384 3.72571 16.936 3.72571 18.202L1.304 17.4747C1.304 15.3603 1.69037 13.5488 2.46311 12.0404C3.24965 10.5185 4.34666 9.35354 5.75415 8.54545C7.17544 7.72391 8.84512 7.31313 10.7632 7.31313C12.2121 7.31313 13.4471 7.53535 14.4682 7.9798C15.4893 8.42424 16.3379 9.01683 17.0141 9.75758C17.6902 10.4848 18.2215 11.3064 18.6079 12.2222C18.9942 13.1246 19.2633 14.0471 19.4151 14.9899C19.5807 15.9192 19.6635 16.8013 19.6635 17.6364V29.697H15.9378ZM0 29.697V7.87879H3.31174V13.7172H3.72571V29.697H0Z" fill="#222A3D"/>
<path d="M22.9749 4.0202V0.30303H26.6592V4.0202H22.9749ZM22.9749 29.697V7.87879H26.6592V29.697H22.9749Z" fill="#222A3D"/>
<path d="M39.4311 40C38.2582 40 37.1129 39.8249 35.9952 39.4747C34.8774 39.1246 33.8494 38.5926 32.9111 37.8788C31.9866 37.1785 31.2138 36.2896 30.5929 35.2121L33.9667 33.4747C34.5187 34.5387 35.2983 35.3131 36.3056 35.798C37.3268 36.2828 38.3755 36.5253 39.4518 36.5253C40.8731 36.5253 42.0529 36.2694 42.9912 35.7576C43.9295 35.2593 44.6195 34.5118 45.0611 33.5152C45.5164 32.5185 45.7372 31.2795 45.7234 29.798V23.8384H46.1581V7.87879H49.4284V29.8384C49.4284 30.431 49.4077 31.0034 49.3663 31.5556C49.3387 32.1077 49.2697 32.6532 49.1593 33.1919C48.8696 34.7407 48.2969 36.0135 47.4414 37.0101C46.5858 38.0202 45.4819 38.7677 44.1296 39.2525C42.7773 39.7508 41.2112 40 39.4311 40ZM39.162 30.303C37.0784 30.303 35.2914 29.798 33.8011 28.7879C32.3108 27.7643 31.1586 26.3838 30.3445 24.6465C29.5442 22.9091 29.144 20.9495 29.144 18.7677C29.144 16.5859 29.5442 14.6263 30.3445 12.8889C31.1586 11.1515 32.3108 9.78451 33.8011 8.78788C35.2914 7.77778 37.0715 7.27273 39.1413 7.27273C41.2526 7.27273 43.0257 7.77104 44.4608 8.76768C45.8959 9.76431 46.9791 11.1313 47.7105 12.8687C48.4556 14.6061 48.8282 16.5724 48.8282 18.7677C48.8282 20.936 48.4556 22.8956 47.7105 24.6465C46.9791 26.3838 45.8959 27.7643 44.4608 28.7879C43.0257 29.798 41.2595 30.303 39.162 30.303ZM39.6174 27.0101C41.1215 27.0101 42.3565 26.6599 43.3224 25.9596C44.2883 25.2458 44.999 24.2694 45.4543 23.0303C45.9235 21.7778 46.1581 20.3569 46.1581 18.7677C46.1581 17.1515 45.9235 15.7306 45.4543 14.5051C44.999 13.266 44.2952 12.303 43.3431 11.6162C42.391 10.9158 41.1836 10.5657 39.7209 10.5657C38.203 10.5657 36.9473 10.9293 35.9538 11.6566C34.974 12.3838 34.2427 13.367 33.7597 14.6061C33.2906 15.8451 33.056 17.2323 33.056 18.7677C33.056 20.3165 33.2975 21.7172 33.7804 22.9697C34.2634 24.2088 34.9878 25.1919 35.9538 25.9192C36.9335 26.6465 38.1547 27.0101 39.6174 27.0101Z" fill="#222A3D"/>
<path d="M68.6411 29.697V18.7677C68.6411 17.7306 68.5445 16.734 68.3513 15.7778C68.1719 14.8215 67.8476 13.9663 67.3785 13.2121C66.9231 12.4444 66.3021 11.8384 65.5156 11.3939C64.7429 10.9495 63.7631 10.7273 62.5764 10.7273C61.6519 10.7273 60.8102 10.8822 60.0512 11.1919C59.3061 11.4882 58.6644 11.9461 58.1263 12.5657C57.5881 13.1852 57.1673 13.9663 56.8637 14.9091C56.5739 15.8384 56.429 16.936 56.429 18.202L54.0073 17.4747C54.0073 15.3603 54.3937 13.5488 55.1664 12.0404C55.9529 10.5185 57.05 9.35354 58.4575 8.54545C59.8787 7.72391 61.5484 7.31313 63.4665 7.31313C64.9154 7.31313 66.1504 7.53535 67.1715 7.9798C68.1926 8.42424 69.0412 9.01683 69.7174 9.75758C70.3935 10.4848 70.9248 11.3064 71.3112 12.2222C71.6975 13.1246 71.9666 14.0471 72.1184 14.9899C72.284 15.9192 72.3668 16.8013 72.3668 17.6364V29.697H68.6411ZM52.7033 29.697V0.60606H56.015V16.6667H56.429V29.697H52.7033Z" fill="#222A3D"/>
<path d="M87.7454 29.697C86.4207 29.9529 85.1098 30.0539 83.8127 30C82.5294 29.9596 81.3841 29.7104 80.3767 29.2525C79.3694 28.7811 78.6036 28.0539 78.0792 27.0707C77.6376 26.2088 77.3962 25.3401 77.3548 24.4646C77.3272 23.5758 77.3134 22.5724 77.3134 21.4545V1.81818H80.9977V21.2929C80.9977 22.1818 81.0046 22.9428 81.0184 23.5758C81.046 24.2088 81.1909 24.7542 81.453 25.2121C81.9498 26.0741 82.7364 26.5791 83.8127 26.7273C84.9028 26.8754 86.2137 26.835 87.7454 26.6061V29.697ZM72.7804 10.8485V7.87879H87.7454V10.8485H72.7804Z" fill="#222A3D"/>
<path d="M90.214 4.0202V0.30303H93.8983V4.0202H90.214ZM90.214 29.697V7.87879H93.8983V29.697H90.214Z" fill="#222A3D"/>
<path d="M113.542 29.697V18.7677C113.542 17.7306 113.445 16.734 113.252 15.7778C113.073 14.8215 112.749 13.9663 112.279 13.2121C111.824 12.4444 111.203 11.8384 110.417 11.3939C109.644 10.9495 108.664 10.7273 107.477 10.7273C106.553 10.7273 105.711 10.8822 104.952 11.1919C104.207 11.4882 103.565 11.9461 103.027 12.5657C102.489 13.1852 102.068 13.9663 101.765 14.9091C101.475 15.8384 101.33 16.936 101.33 18.202L98.9083 17.4747C98.9083 15.3603 99.2946 13.5488 100.067 12.0404C100.854 10.5185 101.951 9.35354 103.358 8.54545C104.78 7.72391 106.449 7.31313 108.367 7.31313C109.816 7.31313 111.051 7.53535 112.072 7.9798C113.094 8.42424 113.942 9.01683 114.618 9.75758C115.295 10.4848 115.826 11.3064 116.212 12.2222C116.599 13.1246 116.868 14.0471 117.019 14.9899C117.185 15.9192 117.268 16.8013 117.268 17.6364V29.697H113.542ZM97.6043 29.697V7.87879H100.916V13.7172H101.33V29.697H97.6043Z" fill="#222A3D"/>
<path d="M129.21 40C128.037 40 126.892 39.8249 125.774 39.4747C124.657 39.1246 123.629 38.5926 122.69 37.8788C121.766 37.1785 120.993 36.2896 120.372 35.2121L123.746 33.4747C124.298 34.5387 125.078 35.3131 126.085 35.798C127.106 36.2828 128.155 36.5253 129.231 36.5253C130.652 36.5253 131.832 36.2694 132.771 35.7576C133.709 35.2593 134.399 34.5118 134.84 33.5152C135.296 32.5185 135.517 31.2795 135.503 29.798V23.8384H135.937V7.87879H139.208V29.8384C139.208 30.431 139.187 31.0034 139.146 31.5556C139.118 32.1077 139.049 32.6532 138.939 33.1919C138.649 34.7407 138.076 36.0135 137.221 37.0101C136.365 38.0202 135.261 38.7677 133.909 39.2525C132.557 39.7508 130.99 40 129.21 40ZM128.941 30.303C126.858 30.303 125.071 29.798 123.58 28.7879C122.09 27.7643 120.938 26.3838 120.124 24.6465C119.323 22.9091 118.923 20.9495 118.923 18.7677C118.923 16.5859 119.323 14.6263 120.124 12.8889C120.938 11.1515 122.09 9.78451 123.58 8.78788C125.071 7.77778 126.851 7.27273 128.921 7.27273C131.032 7.27273 132.805 7.77104 134.24 8.76768C135.675 9.76431 136.758 11.1313 137.49 12.8687C138.235 14.6061 138.607 16.5724 138.607 18.7677C138.607 20.936 138.235 22.8956 137.49 24.6465C136.758 26.3838 135.675 27.7643 134.24 28.7879C132.805 29.798 131.039 30.303 128.941 30.303ZM129.397 27.0101C130.901 27.0101 132.136 26.6599 133.102 25.9596C134.068 25.2458 134.778 24.2694 135.234 23.0303C135.703 21.7778 135.937 20.3569 135.937 18.7677C135.937 17.1515 135.703 15.7306 135.234 14.5051C134.778 13.266 134.075 12.303 133.122 11.6162C132.17 10.9158 130.963 10.5657 129.5 10.5657C127.982 10.5657 126.727 10.9293 125.733 11.6566C124.753 12.3838 124.022 13.367 123.539 14.6061C123.07 15.8451 122.835 17.2323 122.835 18.7677C122.835 20.3165 123.077 21.7172 123.56 22.9697C124.043 24.2088 124.767 25.1919 125.733 25.9192C126.713 26.6465 127.934 27.0101 129.397 27.0101Z" fill="#222A3D"/>
<path d="M148.858 30.303C147.188 30.303 145.787 30.0067 144.656 29.4141C143.538 28.8081 142.69 28.0135 142.11 27.0303C141.544 26.0471 141.261 24.9697 141.261 23.798C141.261 22.6532 141.482 21.6633 141.924 20.8283C142.379 19.9798 143.014 19.2795 143.828 18.7273C144.642 18.1616 145.615 17.7172 146.746 17.3939C147.809 17.1111 148.996 16.8687 150.307 16.6667C151.631 16.4512 152.97 16.2559 154.322 16.0808C155.674 15.9057 156.937 15.7374 158.11 15.5758L156.785 16.3232C156.827 14.3838 156.426 12.9495 155.585 12.0202C154.757 11.0909 153.322 10.6263 151.279 10.6263C149.927 10.6263 148.74 10.9293 147.719 11.5354C146.712 12.1279 146.001 13.0976 145.587 14.4444L142.089 13.4141C142.627 11.5017 143.669 10 145.215 8.90909C146.76 7.81818 148.796 7.27273 151.321 7.27273C153.349 7.27273 155.088 7.62963 156.537 8.34343C157.999 9.04377 159.048 10.1077 159.683 11.5354C160 12.2088 160.2 12.9428 160.283 13.7374C160.366 14.5185 160.407 15.3401 160.407 16.202V29.697H157.137V24.4646L157.903 24.9495C157.061 26.7138 155.881 28.0471 154.363 28.9495C152.859 29.8519 151.024 30.303 148.858 30.303ZM149.417 27.2929C150.741 27.2929 151.887 27.064 152.852 26.6061C153.832 26.1347 154.619 25.5219 155.212 24.7677C155.805 24 156.192 23.165 156.371 22.2626C156.578 21.5892 156.689 20.8418 156.702 20.0202C156.73 19.1852 156.744 18.5455 156.744 18.101L158.027 18.6465C156.827 18.8081 155.647 18.963 154.488 19.1111C153.329 19.2593 152.232 19.4209 151.197 19.596C150.162 19.7576 149.23 19.9529 148.402 20.1818C147.795 20.3704 147.223 20.6128 146.684 20.9091C146.16 21.2054 145.732 21.5892 145.401 22.0606C145.084 22.5185 144.925 23.0909 144.925 23.7778C144.925 24.3704 145.077 24.936 145.38 25.4747C145.698 26.0135 146.181 26.4512 146.829 26.7879C147.492 27.1246 148.354 27.2929 149.417 27.2929Z" fill="#222A3D"/>
<path d="M163.719 29.697V0H167.403V29.697H163.719Z" fill="#222A3D"/>
<path d="M180.817 30.303C178.623 30.303 176.705 29.8317 175.063 28.8889C173.435 27.9327 172.165 26.6061 171.254 24.9091C170.344 23.1987 169.888 21.2054 169.888 18.9293C169.888 16.5455 170.337 14.4848 171.234 12.7475C172.131 10.9966 173.379 9.64983 174.98 8.70707C176.595 7.75084 178.485 7.27273 180.651 7.27273C182.901 7.27273 184.812 7.77778 186.385 8.78788C187.972 9.79798 189.158 11.2391 189.945 13.1111C190.745 14.9832 191.09 17.2121 190.98 19.798H187.254V18.5051C187.213 15.8249 186.654 13.8249 185.578 12.5051C184.501 11.1717 182.901 10.5051 180.776 10.5051C178.499 10.5051 176.767 11.2189 175.58 12.6465C174.394 14.0741 173.8 16.1212 173.8 18.7879C173.8 21.3603 174.394 23.3535 175.58 24.7677C176.767 26.1818 178.457 26.8889 180.651 26.8889C182.128 26.8889 183.411 26.5589 184.501 25.899C185.591 25.2391 186.447 24.2896 187.068 23.0505L190.607 24.2424C189.738 26.1684 188.427 27.6633 186.675 28.7273C184.936 29.7778 182.983 30.303 180.817 30.303ZM172.558 19.798V16.9091H189.076V19.798H172.558Z" fill="#222A3D"/>
</svg>
