<svg width="48" height="48" viewBox="0 0 48 48" fill="none" xmlns="http://www.w3.org/2000/svg">
<g id="Solid quote">
<g id="Vector">
<path d="M8 20.75V19C8 15.134 11.134 12 15 12C18.866 12 22 15.134 22 19V32.5C22 34.433 20.433 36 18.5 36C16.567 36 15 34.433 15 32.5V27.75C15 26.7835 14.2165 26 13.25 26C10.3505 26 8 23.6495 8 20.75Z" fill="white"/>
<path d="M26 20.75V19C26 15.134 29.134 12 33 12C36.866 12 40 15.134 40 19V32.5C40 34.433 38.433 36 36.5 36C34.567 36 33 34.433 33 32.5V27.75C33 26.7835 32.2165 26 31.25 26C28.3505 26 26 23.6495 26 20.75Z" fill="white"/>
</g>
</g>
</svg>
